<svg width="406" height="118" viewBox="0 0 406 118" fill="none" xmlns="http://www.w3.org/2000/svg">
<path d="M116.228 117.927H110.85C110.287 117.927 109.758 117.64 109.46 117.157L83.4901 75.3965C82.8811 74.4197 81.9273 74.3163 81.5481 74.3163C81.1689 74.3163 80.2037 74.4197 79.6062 75.3965L53.6368 117.157C53.338 117.64 52.8094 117.927 52.2464 117.927H46.8687C45.5817 117.927 44.8003 116.513 45.4783 115.422L72.953 71.2595C74.8145 68.2602 78.0319 66.479 81.5596 66.479C85.0873 66.479 88.3048 68.2602 90.1663 71.2595L117.641 115.422C118.319 116.513 117.538 117.927 116.251 117.927H116.228Z" fill="white"/>
<path d="M131.016 117.927H125.638C125.075 117.927 124.547 117.64 124.248 117.157L85.0756 54.1717C84.2942 52.9191 83.0187 52.2066 81.5478 52.2066C80.077 52.2066 78.79 52.9191 78.0201 54.1717L38.8477 117.157C38.549 117.64 38.0204 117.927 37.4573 117.927H32.0796C30.7926 117.927 30.0113 116.514 30.6892 115.422L71.3554 50.0347C73.5617 46.4838 77.3652 44.3694 81.5478 44.3694C83.6392 44.3694 85.6271 44.898 87.3852 45.8748C89.1318 46.8516 90.6371 48.265 91.7403 50.0347L132.407 115.422C133.084 116.514 132.303 117.927 131.016 117.927Z" fill="white"/>
<path d="M145.792 117.93H140.415C139.852 117.93 139.323 117.643 139.024 117.16L86.6603 32.9499C85.5342 31.1457 83.6727 30.1114 81.5468 30.1114C79.421 30.1114 77.5596 31.1457 76.4335 32.9499L24.0695 117.16C23.7707 117.643 23.2421 117.93 22.6791 117.93H17.3013C16.0144 117.93 15.233 116.517 15.9109 115.425L69.7802 28.8014C72.2737 24.7908 76.5483 22.3546 81.2596 22.2627C86.2236 22.1593 90.843 24.8023 93.4744 29.0198L147.206 115.414C147.884 116.505 147.102 117.919 145.815 117.919L145.792 117.93Z" fill="white"/>
<path d="M160.582 117.928H155.204C154.641 117.928 154.112 117.64 153.814 117.158L88.2467 11.7224C86.7759 9.35516 84.3398 7.99915 81.5475 7.99915C78.7552 7.99915 76.3192 9.35516 74.8484 11.7224L9.2814 117.158C8.98264 117.64 8.45403 117.928 7.89098 117.928H2.51325C1.22627 117.928 0.444866 116.514 1.12283 115.422L68.1951 7.57396C71.0908 2.93136 76.0779 0.150391 81.559 0.150391C87.0402 0.150391 92.0272 2.91987 94.9229 7.57396L161.995 115.422C162.673 116.514 161.892 117.928 160.605 117.928H160.582Z" fill="white"/>
<path d="M203.42 55.9334H188.324L185.826 63.1558H177.844L191.474 25.1978H200.325L213.955 63.1558H205.918L203.42 55.9334ZM201.357 49.8515L195.872 33.9949L190.388 49.8515H201.357ZM226.652 37.7418C227.63 36.1489 228.897 34.9 230.454 33.9949C232.047 33.0899 233.857 32.6373 235.884 32.6373V40.6199H233.875C231.485 40.6199 229.675 41.181 228.444 42.3033C227.25 43.4256 226.652 45.3805 226.652 48.1681V63.1558H219.05V33.0717H226.652V37.7418ZM239.05 48.1138C239.05 45.0004 239.683 42.2852 240.95 39.9683C242.217 37.6151 243.973 35.805 246.218 34.5379C248.462 33.2347 251.033 32.583 253.929 32.583C257.658 32.583 260.735 33.5243 263.16 35.4068C265.622 37.2531 267.269 39.8597 268.102 43.2265H259.902C259.468 41.9232 258.726 40.9095 257.676 40.1855C256.662 39.4252 255.395 39.0451 253.874 39.0451C251.702 39.0451 249.983 39.8416 248.716 41.4345C247.449 42.9911 246.815 45.2176 246.815 48.1138C246.815 50.9737 247.449 53.2002 248.716 54.7931C249.983 56.3498 251.702 57.1281 253.874 57.1281C256.952 57.1281 258.961 55.7524 259.902 53.0011H268.102C267.269 56.2592 265.622 58.8477 263.16 60.7664C260.699 62.6851 257.621 63.6445 253.929 63.6445C251.033 63.6445 248.462 63.011 246.218 61.7439C243.973 60.4406 242.217 58.6305 240.95 56.3135C239.683 53.9604 239.05 51.2271 239.05 48.1138ZM290.614 32.6373C292.895 32.6373 294.922 33.1442 296.696 34.1578C298.47 35.1353 299.846 36.6015 300.823 38.5564C301.837 40.4751 302.344 42.792 302.344 45.5072V63.1558H294.741V46.539C294.741 44.1496 294.144 42.3214 292.949 41.0543C291.754 39.7511 290.125 39.0994 288.062 39.0994C285.962 39.0994 284.297 39.7511 283.066 41.0543C281.871 42.3214 281.274 44.1496 281.274 46.539V63.1558H273.671V22.9713H281.274V36.8187C282.251 35.5154 283.555 34.5017 285.184 33.7777C286.813 33.0174 288.623 32.6373 290.614 32.6373ZM212.598 117.156H204.995L187.781 91.1445V117.156H180.179V79.1978H187.781L204.995 105.263V79.1978H212.598V117.156ZM248.077 101.462C248.077 102.548 248.004 103.526 247.86 104.394H225.867C226.048 106.567 226.808 108.268 228.147 109.499C229.487 110.73 231.134 111.345 233.089 111.345C235.913 111.345 237.922 110.133 239.117 107.707H247.316C246.448 110.603 244.782 112.993 242.321 114.875C239.859 116.721 236.836 117.644 233.252 117.644C230.356 117.644 227.749 117.011 225.432 115.744C223.152 114.441 221.36 112.612 220.056 110.259C218.789 107.906 218.156 105.191 218.156 102.114C218.156 99.0004 218.789 96.2671 220.056 93.914C221.323 91.5608 223.097 89.7507 225.378 88.4836C227.659 87.2166 230.283 86.583 233.252 86.583C236.112 86.583 238.664 87.1985 240.909 88.4293C243.189 89.6602 244.945 91.416 246.176 93.6967C247.443 95.9413 248.077 98.5297 248.077 101.462ZM240.203 99.29C240.167 97.3351 239.461 95.7784 238.085 94.6199C236.709 93.4252 235.026 92.8279 233.035 92.8279C231.152 92.8279 229.559 93.4071 228.256 94.5656C226.989 95.6879 226.211 97.2627 225.921 99.29H240.203ZM262.477 93.3166V107.87C262.477 108.884 262.713 109.626 263.183 110.096C263.69 110.531 264.523 110.748 265.681 110.748H269.211V117.156H264.432C258.024 117.156 254.821 114.042 254.821 107.816V93.3166H251.237V87.0717H254.821V79.6322H262.477V87.0717H269.211V93.3166H262.477ZM316.384 87.0717L307.587 117.156H299.387L293.902 96.1404L288.418 117.156H280.164L271.312 87.0717H279.023L284.345 109.988L290.101 87.0717H298.138L303.786 109.933L309.107 87.0717H316.384ZM333.856 117.644C330.96 117.644 328.353 117.011 326.036 115.744C323.719 114.441 321.891 112.612 320.552 110.259C319.248 107.906 318.597 105.191 318.597 102.114C318.597 99.0366 319.266 96.3214 320.606 93.9683C321.982 91.6151 323.846 89.805 326.199 88.5379C328.552 87.2347 331.177 86.583 334.073 86.583C336.969 86.583 339.594 87.2347 341.947 88.5379C344.3 89.805 346.147 91.6151 347.486 93.9683C348.862 96.3214 349.55 99.0366 349.55 102.114C349.55 105.191 348.844 107.906 347.432 110.259C346.056 112.612 344.174 114.441 341.784 115.744C339.431 117.011 336.788 117.644 333.856 117.644ZM333.856 111.019C335.232 111.019 336.517 110.694 337.711 110.042C338.942 109.354 339.92 108.341 340.644 107.001C341.368 105.662 341.73 104.032 341.73 102.114C341.73 99.2538 340.97 97.0636 339.449 95.5431C337.965 93.9864 336.137 93.208 333.965 93.208C331.792 93.208 329.964 93.9864 328.48 95.5431C327.032 97.0636 326.308 99.2538 326.308 102.114C326.308 104.974 327.014 107.182 328.426 108.739C329.874 110.259 331.684 111.019 333.856 111.019ZM362.729 91.7418C363.706 90.1489 364.973 88.9 366.53 87.9949C368.123 87.0899 369.933 86.6373 371.96 86.6373V94.6199H369.951C367.562 94.6199 365.752 95.181 364.521 96.3033C363.326 97.4256 362.729 99.3805 362.729 102.168V117.156H355.126V87.0717H362.729V91.7418ZM394.892 117.156L384.683 104.34V117.156H377.081V76.9713H384.683V99.833L394.784 87.0717H404.667L391.417 102.168L404.776 117.156H394.892Z" fill="white"/>
</svg>
